<svg width="261" height="457" viewBox="0 0 261 457" fill="none" xmlns="http://www.w3.org/2000/svg">
<path d="M127.887 456.826C93.6115 435.05 61.8186 411.378 47.3081 383.607L91.418 355.585L127.887 456.826Z" fill="#E0E0E0"/>
<path d="M0.643066 208.007V413.274L191.569 291.981V105.373L49.5979 195.567L44.7048 180.011L0.643066 208.007Z" fill="#02897A"/>
<path opacity="0.2" d="M0.643066 208.007V413.274L191.569 291.981V105.373L49.5979 195.567L44.7048 180.011L0.643066 208.007Z" fill="black"/>
<path d="M55.6479 268.693C55.1658 268.693 55.0935 268.083 55.0935 267.725V92.6681C55.1322 91.9891 55.3134 91.3291 55.6229 90.74C55.9324 90.151 56.3617 89.6489 56.8772 89.2731L194.679 1.74491C194.867 1.61539 195.083 1.54224 195.305 1.53271C195.787 1.53271 195.86 2.14276 195.86 2.50083V177.557C195.822 178.238 195.641 178.901 195.332 179.492C195.022 180.083 194.592 180.588 194.076 180.966L56.2746 268.494C56.0842 268.617 55.8687 268.685 55.6479 268.693Z" fill="white"/>
<path d="M195.233 2.14321C195.243 2.24017 195.243 2.33801 195.233 2.43497V177.491C195.193 178.056 195.04 178.604 194.783 179.095C194.527 179.586 194.174 180.007 193.751 180.329L55.9492 267.858L55.7081 267.977C55.692 267.881 55.692 267.782 55.7081 267.685V92.6288C55.7495 92.0665 55.904 91.5214 56.1604 91.0328C56.4168 90.5443 56.7686 90.1246 57.1905 89.804L194.992 2.27583C195.068 2.21733 195.154 2.1767 195.245 2.15647L195.233 2.14321ZM195.317 0.83029C194.989 0.841042 194.669 0.94621 194.389 1.13532L56.5879 88.6635C55.9821 89.1014 55.478 89.6894 55.116 90.3803C54.7539 91.0712 54.5439 91.8458 54.5029 92.6421V267.698C54.5029 268.733 54.973 269.33 55.7081 269.33C56.0365 269.32 56.3568 269.215 56.6361 269.025L194.437 181.496C195.046 181.062 195.552 180.474 195.914 179.783C196.277 179.091 196.485 178.315 196.522 177.518V2.4615C196.522 1.42708 196.052 0.817028 195.317 0.83029Z" fill="#02897A"/>
<path opacity="0.7" d="M195.233 2.14321C195.243 2.24017 195.243 2.33801 195.233 2.43497V177.491C195.193 178.056 195.04 178.604 194.783 179.095C194.527 179.586 194.174 180.007 193.751 180.329L55.9492 267.858L55.7081 267.977C55.692 267.881 55.692 267.782 55.7081 267.685V92.6288C55.7495 92.0665 55.904 91.5214 56.1604 91.0328C56.4168 90.5443 56.7686 90.1246 57.1905 89.804L194.992 2.27583C195.068 2.21733 195.154 2.1767 195.245 2.15647L195.233 2.14321ZM195.317 0.83029C194.989 0.841042 194.669 0.94621 194.389 1.13532L56.5879 88.6635C55.9821 89.1014 55.478 89.6894 55.116 90.3803C54.7539 91.0712 54.5439 91.8458 54.5029 92.6421V267.698C54.5029 268.733 54.973 269.33 55.7081 269.33C56.0365 269.32 56.3568 269.215 56.6361 269.025L194.437 181.496C195.046 181.062 195.552 180.474 195.914 179.783C196.277 179.091 196.485 178.315 196.522 177.518V2.4615C196.522 1.42708 196.052 0.817028 195.317 0.83029Z" fill="white"/>
<path d="M69.1821 99.3129L118.137 68.2139V130.412L69.1821 161.511V99.3129Z" fill="#02897A"/>
<path opacity="0.8" d="M69.1821 99.3129L118.137 68.2139V130.412L69.1821 161.511V99.3129Z" fill="#11B5E4"/>
<path d="M110.797 83.7173V102.417L109.255 103.358V97.6422C109.255 94.4859 106.929 93.4117 104.036 95.2418L83.295 108.437C80.4146 110.268 78.0765 114.312 78.0765 117.469V123.185L76.5459 124.192V105.533L110.797 83.7173Z" fill="white"/>
<path d="M101.373 131.327C98.8658 132.918 96.8291 131.247 96.8291 127.574V97.6418L90.5259 101.408V131.579C90.5259 135.239 88.4892 139.536 85.9824 141.088L81.4268 143.979V145.968L105.904 130.412V128.436L101.373 131.327Z" fill="white"/>
<path d="M127.887 65.1506C127.887 66.8746 129.297 67.3653 131.02 66.2779L178.65 35.9745C179.495 35.4474 180.217 34.7122 180.761 33.8264C181.305 32.9405 181.654 31.9282 181.783 30.8687C181.783 29.1579 180.373 28.654 178.65 29.7547L131.057 59.9917C130.198 60.5178 129.463 61.2589 128.912 62.1551C128.362 63.0512 128.011 64.0774 127.887 65.1506Z" fill="#455A64"/>
<path d="M127.887 83.7171C127.887 85.4411 129.297 85.9451 131.02 84.8444L178.613 54.6073C179.458 54.0803 180.181 53.345 180.725 52.4592C181.268 51.5733 181.618 50.561 181.747 49.5015C181.747 47.7907 180.337 47.2868 178.613 48.3875L131.02 78.6245C130.177 79.1503 129.455 79.8835 128.912 80.7669C128.368 81.6503 128.017 82.66 127.887 83.7171Z" fill="#455A64"/>
<path d="M127.887 102.416C127.887 104.14 129.297 104.644 131.02 103.543L178.613 73.3058C179.457 72.7801 180.179 72.0469 180.722 71.1635C181.266 70.2801 181.616 69.2704 181.747 68.2133C181.747 66.4892 180.337 65.9853 178.613 67.086L131.02 97.323C130.177 97.8488 129.455 98.582 128.912 99.4654C128.368 100.349 128.017 101.358 127.887 102.416Z" fill="#455A64"/>
<path d="M127.887 121.076C127.887 122.8 129.297 123.304 131.02 122.203L178.613 91.9661C179.457 91.4403 180.179 90.7072 180.722 89.8238C181.266 88.9404 181.616 87.9307 181.747 86.8736C181.747 85.1495 180.337 84.6456 178.613 85.7463L131.02 115.983C130.177 116.509 129.455 117.242 128.912 118.126C128.368 119.009 128.017 120.019 127.887 121.076Z" fill="#455A64"/>
<path d="M69.1821 177.067C69.1821 178.791 70.5802 179.295 72.3156 178.195L178.649 110.559C179.494 110.035 180.217 109.302 180.761 108.419C181.304 107.535 181.654 106.524 181.783 105.467C181.783 103.743 180.373 103.252 178.649 104.339L72.3156 171.975C71.4703 172.498 70.7471 173.231 70.2032 174.115C69.6594 174.998 69.3098 176.009 69.1821 177.067Z" fill="#455A64"/>
<path d="M69.1821 195.726C69.1821 197.45 70.5802 197.954 72.3156 196.853L178.649 129.298C179.495 128.77 180.217 128.035 180.761 127.149C181.305 126.264 181.654 125.251 181.783 124.192C181.783 122.481 180.373 121.977 178.649 123.078L72.3156 190.634C71.4703 191.157 70.7471 191.889 70.2032 192.773C69.6594 193.657 69.3098 194.668 69.1821 195.726Z" fill="#455A64"/>
<path d="M69.1821 214.399C69.1821 216.109 70.5802 216.613 72.3156 215.513L178.649 147.957C179.495 147.43 180.217 146.694 180.761 145.809C181.305 144.923 181.654 143.911 181.783 142.851C181.783 141.14 180.373 140.636 178.649 141.737L72.3156 209.293C71.4688 209.818 70.7447 210.552 70.2007 211.438C69.6568 212.325 69.3081 213.338 69.1821 214.399Z" fill="#455A64"/>
<path d="M0.643066 413.274L34.9066 248.442L225.833 127.136L191.569 291.981L0.643066 413.274Z" fill="#02897A"/>
<path d="M47.3562 261.346V383.607L91.4179 355.611V233.363L47.3562 261.346Z" fill="#02897A"/>
<path opacity="0.2" d="M47.3562 261.346V383.607L91.4179 355.611V233.363L47.3562 261.346Z" fill="black"/>
<path d="M127.971 456.03C124.223 452.954 88.0916 422.571 69.7245 379.112C50.1764 332.907 50.2004 279.011 50.2004 258.734V258.097L181.18 174.892C181.18 195.355 181.18 249.331 200.813 295.695C218.758 338.133 253.504 368.131 259.012 372.719L127.971 456.03Z" fill="white"/>
<path d="M180.578 176.086C180.578 197.411 180.952 250.352 200.271 296.026C217.613 337.005 250.587 366.473 257.927 372.693L128.008 455.234C122.934 451.03 88.164 421.151 70.279 378.886C50.7549 332.814 50.7549 279.024 50.7549 258.773V258.521L180.53 176.072L180.578 176.086ZM181.735 173.778L49.5498 257.765C49.5498 276.849 49.1882 332.297 69.1341 379.443C88.7666 425.713 127.887 456.826 127.887 456.826L260.108 372.825C260.108 372.825 220.94 341.713 201.367 295.442C181.41 248.296 181.783 192.849 181.783 173.765L181.735 173.778Z" fill="#02897A"/>
<path opacity="0.7" d="M180.578 176.086C180.578 197.411 180.952 250.352 200.271 296.026C217.613 337.005 250.587 366.473 257.927 372.693L128.008 455.234C122.934 451.03 88.164 421.151 70.279 378.886C50.7549 332.814 50.7549 279.024 50.7549 258.773V258.521L180.53 176.072L180.578 176.086ZM181.735 173.778L49.5498 257.765C49.5498 276.849 49.1882 332.297 69.1341 379.443C88.7666 425.713 127.887 456.826 127.887 456.826L260.108 372.825C260.108 372.825 220.94 341.713 201.367 295.442C181.41 248.296 181.783 192.849 181.783 173.765L181.735 173.778Z" fill="white"/>
<path d="M166.827 201.946L125.031 228.47C124.194 228.976 123.481 229.698 122.952 230.573C122.423 231.448 122.095 232.451 121.994 233.496C122.054 235.18 123.512 235.658 125.236 234.557L167.044 208.033C167.87 207.531 168.576 206.819 169.102 205.957C169.628 205.094 169.96 204.105 170.069 203.073C169.996 201.323 168.562 200.845 166.827 201.946Z" fill="#455A64"/>
<path d="M167.718 220.049L125.922 246.572C125.096 247.061 124.395 247.773 123.885 248.64C123.375 249.507 123.073 250.502 123.006 251.532C123.138 253.163 124.657 253.601 126.38 252.5L168.188 225.977C169.011 225.489 169.707 224.78 170.211 223.914C170.715 223.049 171.01 222.056 171.069 221.03C170.948 219.385 169.454 218.988 167.718 220.049Z" fill="#455A64"/>
<path d="M169.394 237.647L127.586 264.171C125.862 265.272 124.609 267.46 124.814 269.038C125.019 270.616 126.597 271.027 128.333 269.927L170.141 243.403C171.864 242.302 173.094 240.127 172.877 238.549C172.66 236.971 171.117 236.547 169.394 237.647Z" fill="#455A64"/>
<path d="M171.9 254.715L130.092 281.239C128.369 282.34 127.176 284.488 127.465 286.026C127.754 287.565 129.393 287.91 131.081 286.809L172.877 260.285C174.612 259.184 175.769 257.049 175.48 255.511C175.191 253.972 173.684 253.614 171.9 254.715Z" fill="#455A64"/>
<path d="M175.299 271.213L133.491 297.737C131.768 298.838 130.647 300.933 131.081 302.405C131.515 303.877 133.166 304.209 134.889 303.108L176.697 276.584C178.433 275.483 179.517 273.401 179.108 271.916C178.698 270.431 177.023 270.112 175.299 271.213Z" fill="#455A64"/>
<path d="M179.71 287.114L77.8236 351.845C76.1001 352.946 75.0516 354.988 75.5216 356.407C75.9917 357.826 77.7874 358.092 79.5108 356.991L181.398 292.26C183.133 291.159 184.133 289.13 183.663 287.698C183.193 286.266 181.373 286.014 179.71 287.114Z" fill="#455A64"/>
<path d="M185.073 302.299L83.1984 367.03C81.4629 368.13 80.5108 370.12 81.0893 371.472C81.6678 372.825 83.4997 373.037 85.2593 371.937L187.146 307.205C188.881 306.105 189.809 304.115 189.231 302.763C188.652 301.41 186.809 301.211 185.073 302.299Z" fill="#455A64"/>
<path d="M191.762 316.768L89.8752 381.499C88.1397 382.599 87.284 384.536 87.971 385.822C88.6579 387.108 90.6224 387.241 92.3578 386.14L194.172 321.409C195.896 320.322 196.727 318.399 196.04 317.112C195.353 315.826 193.449 315.667 191.762 316.768Z" fill="#455A64"/>
<path d="M199.56 330.454L97.6849 395.171C95.9495 396.272 95.1781 398.169 95.9615 399.375C96.7449 400.582 98.8057 400.702 100.541 399.588L202.416 334.857C204.151 333.756 204.899 331.886 204.115 330.666C203.332 329.446 201.295 329.353 199.56 330.454Z" fill="#455A64"/>
<path d="M208.454 343.463L106.567 408.181C104.844 409.282 104.157 411.125 105.025 412.279C105.892 413.433 108.025 413.486 109.761 412.385L211.648 347.628C213.371 346.527 214.058 344.71 213.166 343.556C212.274 342.402 210.189 342.323 208.454 343.463Z" fill="#455A64"/>
<path d="M218.276 355.85L116.426 420.567C114.69 421.668 114.015 423.472 115.028 424.546C116.04 425.62 118.185 425.647 119.909 424.546L221.795 359.815C223.531 358.714 224.133 356.937 223.169 355.836C222.205 354.736 220.036 354.762 218.276 355.85Z" fill="#455A64"/>
<path d="M229.123 367.693L127.236 432.411C125.513 433.511 124.946 435.275 126.031 436.323C127.116 437.371 129.333 437.331 131.069 436.23L232.871 371.499C234.594 370.398 235.137 368.674 234.076 367.613C233.016 366.552 230.81 366.592 229.123 367.693Z" fill="#455A64"/>
<path d="M109.881 238.138L61.8184 268.64C62.3486 287.803 64.3372 315.441 71.6166 343.278L119.692 312.775C112.4 284.939 110.412 257.288 109.881 238.138Z" fill="#02897A"/>
<path opacity="0.8" d="M109.881 238.138L61.8184 268.64C62.3486 287.803 64.3372 315.441 71.6166 343.278L119.692 312.775C112.4 284.939 110.412 257.288 109.881 238.138Z" fill="#11B5E4"/>
<path d="M81.4147 264.423C81.4796 263.186 81.3047 261.948 80.9016 260.791C80.4985 259.634 79.8764 258.584 79.0767 257.712L61.8184 268.666C61.963 273.732 62.204 279.395 62.6259 285.496C64.8708 285.78 67.1416 285.318 69.1459 284.17C75.9311 280.748 81.4147 271.876 81.4147 264.423Z" fill="#02897A"/>
<path opacity="0.6" d="M81.4147 264.423C81.4796 263.186 81.3047 261.948 80.9016 260.791C80.4985 259.634 79.8764 258.584 79.0767 257.712L61.8184 268.666C61.963 273.732 62.204 279.395 62.6259 285.496C64.8708 285.78 67.1416 285.318 69.1459 284.17C75.9311 280.748 81.4147 271.876 81.4147 264.423Z" fill="white"/>
<path d="M115.606 294.474C112.4 290.032 105.88 276.306 103.096 270.325C102.987 270.088 102.815 269.893 102.604 269.765C102.393 269.637 102.152 269.582 101.912 269.606C101.672 269.63 101.444 269.733 101.257 269.901C101.071 270.07 100.935 270.296 100.867 270.55C97.8547 281.879 96.1064 293.569 95.6601 305.362C91.6462 301.856 88.1957 297.633 85.4522 292.87C85.3352 292.685 85.1727 292.541 84.9839 292.455C84.7951 292.369 84.5877 292.344 84.3864 292.383C84.185 292.422 83.998 292.523 83.8473 292.675C83.6966 292.827 83.5886 293.024 83.5359 293.241C78.2813 315.508 80.9207 337.416 80.9207 337.416L119.692 312.776C118.077 306.622 116.739 300.495 115.606 294.474Z" fill="#02897A"/>
<path opacity="0.6" d="M115.606 294.474C112.4 290.032 105.88 276.306 103.096 270.325C102.987 270.088 102.815 269.893 102.604 269.765C102.393 269.637 102.152 269.582 101.912 269.606C101.672 269.63 101.444 269.733 101.257 269.901C101.071 270.07 100.935 270.296 100.867 270.55C97.8547 281.879 96.1064 293.569 95.6601 305.362C91.6462 301.856 88.1957 297.633 85.4522 292.87C85.3352 292.685 85.1727 292.541 84.9839 292.455C84.7951 292.369 84.5877 292.344 84.3864 292.383C84.185 292.422 83.998 292.523 83.8473 292.675C83.6966 292.827 83.5886 293.024 83.5359 293.241C78.2813 315.508 80.9207 337.416 80.9207 337.416L119.692 312.776C118.077 306.622 116.739 300.495 115.606 294.474Z" fill="white"/>
</svg>
