<svg width="391" height="100" viewBox="0 0 391 100" fill="none" xmlns="http://www.w3.org/2000/svg">
<path d="M42.4672 89.0143C42.4672 89.0143 42.5998 67.981 30.5479 52.2127C19.882 38.248 14.2055 29.3891 17.568 25.3044C20.9305 21.2198 28.1616 20.2384 37.9116 31.5375C47.6616 42.8366 48.4209 74.1346 47.0711 81.2164L42.4672 89.0143Z" fill="#02897A"/>
<path opacity="0.2" d="M42.4672 89.0143C42.4672 89.0143 42.5998 67.981 30.5479 52.2127C19.882 38.248 14.2055 29.3891 17.568 25.3044C20.9305 21.2198 28.1616 20.2384 37.9116 31.5375C47.6616 42.8366 48.4209 74.1346 47.0711 81.2164L42.4672 89.0143Z" fill="black"/>
<path d="M44.4919 66.4025C44.3547 66.4031 44.2213 66.3522 44.114 66.2582C44.0066 66.1641 43.9316 66.0326 43.9014 65.8853C39.6832 44.1756 28.8606 32.1736 22.7744 26.9485C22.6484 26.841 22.5663 26.6829 22.5459 26.5089C22.5256 26.335 22.5688 26.1592 22.666 26.0201C22.7658 25.8806 22.9115 25.7899 23.0716 25.7676C23.2317 25.7452 23.3933 25.7931 23.5216 25.9008C29.7284 31.2055 40.7799 43.486 45.0825 65.6067C45.1001 65.6913 45.1022 65.7789 45.0887 65.8643C45.0751 65.9498 45.0461 66.0313 45.0034 66.1043C44.9608 66.1772 44.9052 66.24 44.8402 66.2889C44.7751 66.3378 44.7017 66.3719 44.6245 66.3892L44.4919 66.4025Z" fill="white"/>
<path d="M42.0092 96.8257L37.1041 99.9422C36.5809 98.3689 35.6985 96.9703 34.5418 95.881C33.3851 94.7917 31.9931 94.0483 30.4997 93.7224C25.1366 92.3962 19.5686 92.6217 15.8084 87.5026C12.0482 82.3835 16.6279 76.8136 15.8084 73.0472C14.9889 69.2808 14.4586 68.1933 7.73365 64.427C1.0087 60.6606 -1.64272 54.4143 3.41907 50.1837C8.48087 45.9532 16.6762 49.0565 21.6415 52.8361C26.0525 56.1516 30.2466 57.0269 35.1758 57.7032C40.105 58.3796 48.1316 61.39 46.9023 73.9888C46.0973 81.7871 44.4549 89.453 42.0092 96.8257Z" fill="#02897A"/>
<path d="M23.1842 80.2749C23.0558 80.2738 22.9309 80.2284 22.8272 80.1451C22.7234 80.0619 22.646 79.945 22.6057 79.8108C22.5601 79.642 22.5761 79.4602 22.6504 79.3042C22.7246 79.1482 22.8513 79.0302 23.0034 78.9753C23.4373 78.8294 33.8501 75.1957 38.2732 79.0947C38.383 79.2087 38.4498 79.3639 38.4606 79.5296C38.4714 79.6953 38.4252 79.8594 38.3313 79.9895C38.2373 80.1195 38.1024 80.206 37.9533 80.2319C37.8042 80.2577 37.6517 80.221 37.5259 80.1291C33.6211 76.681 23.4734 80.2087 23.365 80.2484L23.1842 80.2749Z" fill="white"/>
<path d="M42.5515 95.8172C42.4048 95.818 42.263 95.7588 42.1538 95.6509C42.0447 95.543 41.9759 95.3943 41.9609 95.2337C39.2734 67.3042 8.69772 54.0556 8.39642 53.923C8.32171 53.8921 8.25331 53.8453 8.1952 53.7851C8.13709 53.7249 8.09042 53.6526 8.0579 53.5724C8.02539 53.4922 8.00767 53.4057 8.00578 53.3179C8.0039 53.2301 8.01788 53.1428 8.04691 53.061C8.10616 52.9003 8.21924 52.7708 8.36278 52.6992C8.50633 52.6276 8.66937 52.6195 8.81823 52.6764C9.14363 52.8223 40.3942 66.3494 43.1541 95.1143C43.171 95.2883 43.1248 95.4626 43.0255 95.5992C42.9261 95.7358 42.7818 95.8237 42.6238 95.8437L42.5515 95.8172Z" fill="white"/>
<path d="M342.318 78.4845C342.451 78.0204 347.621 48.7382 342.318 27.9701C337.498 8.92611 331.207 1.89735 322.24 0.345716C313.273 -1.20592 309.381 5.90245 314.141 15.5305C318.902 25.1586 330.363 37.9298 333.171 59.4405C334.376 68.2994 335.292 75.9913 335.292 75.9913L342.318 78.4845Z" fill="#02897A"/>
<path opacity="0.2" d="M342.318 78.4845C342.451 78.0204 347.621 48.7382 342.318 27.9701C337.498 8.92611 331.207 1.89735 322.24 0.345716C313.273 -1.20592 309.381 5.90245 314.141 15.5305C318.902 25.1586 330.363 37.9298 333.171 59.4405C334.376 68.2994 335.292 75.9913 335.292 75.9913L342.318 78.4845Z" fill="black"/>
<path d="M339.293 61.6684C339.214 61.6634 339.137 61.6412 339.065 61.6031C338.994 61.565 338.93 61.5118 338.877 61.4465C338.825 61.3812 338.784 61.305 338.759 61.2225C338.733 61.14 338.722 61.0527 338.727 60.9656C339.932 37.2534 332.894 16.0875 320.275 5.70347C320.148 5.59796 320.063 5.44088 320.04 5.26678C320.018 5.09269 320.059 4.91582 320.155 4.77513C320.253 4.63733 320.395 4.54654 320.552 4.52182C320.71 4.49709 320.87 4.54034 320.999 4.6425C333.93 15.252 341.185 36.8953 339.92 61.0451C339.911 61.2187 339.84 61.3813 339.723 61.4979C339.605 61.6144 339.451 61.6757 339.293 61.6684Z" fill="white"/>
<path d="M356.19 93.7358C355.503 88.2852 358.347 80.1158 365.108 78.1796C371.869 76.2434 374.882 71.973 372.448 67.3049C370.013 62.6367 370.58 58.3531 376.714 56.4169C382.849 54.4807 388.224 51.1122 384.693 43.9773C382.126 38.8184 381.559 35.4764 387.85 25.3179C393.069 16.8833 388.802 11.9367 382.27 12.865C375.738 13.7933 371.701 22.3605 367.615 23.7928C363.529 25.225 362.589 17.5862 357.202 21.0078C351.815 24.4293 352.14 33.1954 351.972 39.3091C351.803 45.4229 351.441 46.8021 346.572 46.0594C341.703 45.3167 336.931 46.192 337.039 59.1488C337.124 70.2623 342.511 84.0281 342.511 84.0281L356.19 93.7358Z" fill="#02897A"/>
<path d="M347.646 85.4471H347.585C347.424 85.4271 347.277 85.3378 347.175 85.1987C347.073 85.0595 347.026 84.8819 347.043 84.7044C350.442 51.2978 376.498 23.1164 383.295 17.4005C383.423 17.2933 383.584 17.2463 383.744 17.2699C383.903 17.2935 384.047 17.3858 384.145 17.5265C384.242 17.6672 384.285 17.8448 384.263 18.0201C384.242 18.1955 384.158 18.3542 384.03 18.4615C377.317 24.0978 351.599 51.9079 348.248 84.8503C348.231 85.0133 348.16 85.1637 348.049 85.2735C347.938 85.3833 347.795 85.445 347.646 85.4471Z" fill="white"/>
<path d="M359.528 49.7332C359.406 49.7324 359.287 49.6916 359.186 49.616C359.085 49.5404 359.007 49.4335 358.962 49.3089C358.91 49.1416 358.919 48.9589 358.986 48.7985C359.054 48.6381 359.174 48.5122 359.323 48.4468C369.037 44.4683 380.053 46.3515 380.523 46.4311C380.679 46.4603 380.818 46.5561 380.911 46.6975C381.003 46.839 381.041 47.0148 381.017 47.187C380.987 47.3581 380.9 47.5107 380.773 47.614C380.645 47.7173 380.487 47.7638 380.33 47.744C380.221 47.744 369.158 45.8343 359.745 49.6935C359.675 49.7195 359.602 49.7329 359.528 49.7332Z" fill="white"/>
<path d="M350.875 69.8113C350.79 69.8102 350.707 69.7896 350.63 69.7508C350.553 69.712 350.485 69.6557 350.429 69.5858C346.389 64.4091 343.651 58.159 342.487 51.4569C342.475 51.3707 342.479 51.2827 342.497 51.198C342.516 51.1133 342.55 51.0336 342.597 50.9634C342.644 50.8931 342.704 50.8338 342.771 50.7888C342.839 50.7438 342.915 50.7139 342.993 50.701C343.071 50.6878 343.151 50.6918 343.228 50.7126C343.305 50.7335 343.378 50.7709 343.442 50.8226C343.505 50.8744 343.559 50.9394 343.6 51.0141C343.641 51.0888 343.668 51.1717 343.68 51.258C344.832 57.6961 347.467 63.7009 351.333 68.6973C351.408 68.795 351.457 68.9141 351.473 69.041C351.489 69.1678 351.472 69.2971 351.424 69.4138C351.376 69.5305 351.299 69.6298 351.202 69.7002C351.105 69.7706 350.991 69.8091 350.875 69.8113Z" fill="white"/>
</svg>
